<svg xmlns="http://www.w3.org/2000/svg" viewBox="0 0 720 360" role="img" aria-label="Hermes radial browser field">
  <rect width="720" height="360" fill="#0000f2"/>
  <g opacity="0.96"><line x1="467.7" y1="139.5" x2="252.7" y2="69.7" stroke="#f5f5f5" stroke-width="1.4" opacity="0.22"/><line x1="466.4" y1="137.2" x2="246.8" y2="53.3" stroke="#f5f5f5" stroke-width="1.4" opacity="0.27"/><line x1="465.2" y1="134.7" x2="242.0" y2="36.2" stroke="#f5f5f5" stroke-width="1.4" opacity="0.31"/><line x1="464.3" y1="132.0" x2="238.2" y2="18.3" stroke="#f5f5f5" stroke-width="1.4" opacity="0.35"/><line x1="463.5" y1="129.3" x2="235.7" y2="-0.2" stroke="#f5f5f5" stroke-width="1.4" opacity="0.40"/><line x1="471.3" y1="131.7" x2="234.3" y2="-19.2" stroke="#f5f5f5" stroke-width="1.4" opacity="0.44"/><line x1="470.7" y1="129.1" x2="234.3" y2="-38.8" stroke="#f5f5f5" stroke-width="1.4" opacity="0.49"/><line x1="470.2" y1="126.4" x2="235.5" y2="-58.9" stroke="#f5f5f5" stroke-width="1.4" opacity="0.22"/><line x1="469.9" y1="123.7" x2="238.2" y2="-79.2" stroke="#f5f5f5" stroke-width="1.4" opacity="0.27"/><line x1="469.8" y1="120.8" x2="313.3" y2="-30.9" stroke="#f5f5f5" stroke-width="1.4" opacity="0.31"/><line x1="476.8" y1="125.1" x2="315.2" y2="-48.2" stroke="#f5f5f5" stroke-width="1.4" opacity="0.35"/><line x1="476.8" y1="122.5" x2="318.4" y2="-65.7" stroke="#f5f5f5" stroke-width="1.4" opacity="0.40"/><line x1="477.0" y1="119.7" x2="322.9" y2="-83.4" stroke="#f5f5f5" stroke-width="1.4" opacity="0.44"/><line x1="477.5" y1="117.0" x2="328.7" y2="-101.1" stroke="#f5f5f5" stroke-width="1.4" opacity="0.49"/><line x1="478.1" y1="114.2" x2="335.9" y2="-118.9" stroke="#f5f5f5" stroke-width="1.4" opacity="0.22"/><line x1="483.8" y1="120.1" x2="344.4" y2="-136.5" stroke="#f5f5f5" stroke-width="1.4" opacity="0.27"/><line x1="484.4" y1="117.5" x2="354.4" y2="-153.9" stroke="#f5f5f5" stroke-width="1.4" opacity="0.31"/><line x1="485.3" y1="114.9" x2="365.7" y2="-171.0" stroke="#f5f5f5" stroke-width="1.4" opacity="0.35"/><line x1="486.5" y1="112.4" x2="411.9" y2="-94.6" stroke="#f5f5f5" stroke-width="1.4" opacity="0.40"/><line x1="487.8" y1="109.8" x2="421.2" y2="-109.3" stroke="#f5f5f5" stroke-width="1.4" opacity="0.44"/><line x1="491.8" y1="117.0" x2="431.8" y2="-123.6" stroke="#f5f5f5" stroke-width="1.4" opacity="0.49"/><line x1="493.1" y1="114.7" x2="443.6" y2="-137.5" stroke="#f5f5f5" stroke-width="1.4" opacity="0.22"/><line x1="494.6" y1="112.4" x2="456.6" y2="-150.9" stroke="#f5f5f5" stroke-width="1.4" opacity="0.27"/><line x1="496.3" y1="110.2" x2="470.9" y2="-163.7" stroke="#f5f5f5" stroke-width="1.4" opacity="0.31"/><line x1="498.2" y1="108.0" x2="486.3" y2="-175.7" stroke="#f5f5f5" stroke-width="1.4" opacity="0.35"/><line x1="500.3" y1="116.0" x2="502.9" y2="-187.0" stroke="#f5f5f5" stroke-width="1.4" opacity="0.40"/><line x1="502.1" y1="114.1" x2="520.6" y2="-197.4" stroke="#f5f5f5" stroke-width="1.4" opacity="0.44"/><line x1="504.2" y1="112.2" x2="528.5" y2="-108.4" stroke="#f5f5f5" stroke-width="1.4" opacity="0.49"/><line x1="506.4" y1="110.5" x2="543.3" y2="-117.5" stroke="#f5f5f5" stroke-width="1.4" opacity="0.22"/><line x1="508.8" y1="108.9" x2="559.1" y2="-125.7" stroke="#f5f5f5" stroke-width="1.4" opacity="0.27"/><line x1="508.8" y1="117.2" x2="575.8" y2="-133.0" stroke="#f5f5f5" stroke-width="1.4" opacity="0.31"/><line x1="511.1" y1="115.7" x2="593.4" y2="-139.3" stroke="#f5f5f5" stroke-width="1.4" opacity="0.35"/><line x1="513.5" y1="114.5" x2="611.9" y2="-144.5" stroke="#f5f5f5" stroke-width="1.4" opacity="0.40"/><line x1="516.1" y1="113.4" x2="631.0" y2="-148.5" stroke="#f5f5f5" stroke-width="1.4" opacity="0.44"/><line x1="518.8" y1="112.4" x2="650.9" y2="-151.3" stroke="#f5f5f5" stroke-width="1.4" opacity="0.49"/><line x1="516.7" y1="120.4" x2="671.4" y2="-152.9" stroke="#f5f5f5" stroke-width="1.4" opacity="0.22"/><line x1="519.3" y1="119.6" x2="639.3" y2="-69.5" stroke="#f5f5f5" stroke-width="1.4" opacity="0.27"/><line x1="522.0" y1="119.0" x2="656.6" y2="-71.2" stroke="#f5f5f5" stroke-width="1.4" opacity="0.31"/><line x1="524.7" y1="118.6" x2="674.4" y2="-71.6" stroke="#f5f5f5" stroke-width="1.4" opacity="0.35"/><line x1="527.6" y1="118.4" x2="692.6" y2="-70.8" stroke="#f5f5f5" stroke-width="1.4" opacity="0.40"/><line x1="523.6" y1="125.5" x2="711.2" y2="-68.7" stroke="#f5f5f5" stroke-width="1.4" opacity="0.44"/><line x1="526.3" y1="125.4" x2="730.0" y2="-65.2" stroke="#f5f5f5" stroke-width="1.4" opacity="0.49"/><line x1="529.0" y1="125.5" x2="749.0" y2="-60.4" stroke="#f5f5f5" stroke-width="1.4" opacity="0.22"/><line x1="531.8" y1="125.8" x2="768.1" y2="-54.2" stroke="#f5f5f5" stroke-width="1.4" opacity="0.27"/><line x1="534.7" y1="126.3" x2="787.1" y2="-46.6" stroke="#f5f5f5" stroke-width="1.4" opacity="0.31"/><line x1="529.0" y1="132.2" x2="721.7" y2="14.2" stroke="#f5f5f5" stroke-width="1.4" opacity="0.35"/><line x1="531.6" y1="132.8" x2="737.9" y2="20.3" stroke="#f5f5f5" stroke-width="1.4" opacity="0.40"/><line x1="534.2" y1="133.5" x2="754.1" y2="27.7" stroke="#f5f5f5" stroke-width="1.4" opacity="0.44"/><line x1="536.9" y1="134.5" x2="770.1" y2="36.5" stroke="#f5f5f5" stroke-width="1.4" opacity="0.49"/><line x1="539.5" y1="135.7" x2="785.8" y2="46.5" stroke="#f5f5f5" stroke-width="1.4" opacity="0.22"/><line x1="532.5" y1="140.1" x2="801.2" y2="57.9" stroke="#f5f5f5" stroke-width="1.4" opacity="0.27"/><line x1="534.9" y1="141.2" x2="816.2" y2="70.6" stroke="#f5f5f5" stroke-width="1.4" opacity="0.31"/><line x1="537.3" y1="142.6" x2="830.6" y2="84.5" stroke="#f5f5f5" stroke-width="1.4" opacity="0.35"/><line x1="539.6" y1="144.2" x2="844.4" y2="99.8" stroke="#f5f5f5" stroke-width="1.4" opacity="0.40"/></g>
  <g><circle cx="654" cy="57" r="0.8" fill="#f5f5f5" opacity="0.09"/><circle cx="281" cy="125" r="0.8" fill="#f5f5f5" opacity="0.13"/><circle cx="104" cy="346" r="0.8" fill="#f5f5f5" opacity="0.26"/><circle cx="558" cy="44" r="0.8" fill="#f5f5f5" opacity="0.22"/><circle cx="32" cy="15" r="0.8" fill="#f5f5f5" opacity="0.10"/><circle cx="238" cy="258" r="0.8" fill="#f5f5f5" opacity="0.22"/><circle cx="574" cy="101" r="0.8" fill="#f5f5f5" opacity="0.25"/><circle cx="718" cy="279" r="0.8" fill="#f5f5f5" opacity="0.18"/><circle cx="459" cy="301" r="0.8" fill="#f5f5f5" opacity="0.15"/><circle cx="6" cy="81" r="0.8" fill="#f5f5f5" opacity="0.25"/><circle cx="348" cy="142" r="0.8" fill="#f5f5f5" opacity="0.12"/><circle cx="344" cy="52" r="0.8" fill="#f5f5f5" opacity="0.10"/><circle cx="99" cy="183" r="0.8" fill="#f5f5f5" opacity="0.28"/><circle cx="618" cy="135" r="0.8" fill="#f5f5f5" opacity="0.27"/><circle cx="470" cy="274" r="0.8" fill="#f5f5f5" opacity="0.11"/><circle cx="387" cy="40" r="0.8" fill="#f5f5f5" opacity="0.21"/><circle cx="643" cy="316" r="0.8" fill="#f5f5f5" opacity="0.29"/><circle cx="370" cy="295" r="0.8" fill="#f5f5f5" opacity="0.13"/><circle cx="71" cy="23" r="0.8" fill="#f5f5f5" opacity="0.24"/><circle cx="296" cy="40" r="0.8" fill="#f5f5f5" opacity="0.29"/><circle cx="103" cy="194" r="0.8" fill="#f5f5f5" opacity="0.15"/><circle cx="650" cy="186" r="0.8" fill="#f5f5f5" opacity="0.12"/><circle cx="363" cy="107" r="0.8" fill="#f5f5f5" opacity="0.24"/><circle cx="718" cy="349" r="0.8" fill="#f5f5f5" opacity="0.24"/><circle cx="623" cy="325" r="0.8" fill="#f5f5f5" opacity="0.12"/><circle cx="250" cy="83" r="0.8" fill="#f5f5f5" opacity="0.19"/><circle cx="276" cy="327" r="0.8" fill="#f5f5f5" opacity="0.25"/><circle cx="224" cy="350" r="0.8" fill="#f5f5f5" opacity="0.16"/><circle cx="57" cy="117" r="0.8" fill="#f5f5f5" opacity="0.28"/><circle cx="323" cy="205" r="0.8" fill="#f5f5f5" opacity="0.14"/><circle cx="216" cy="290" r="0.8" fill="#f5f5f5" opacity="0.29"/><circle cx="322" cy="108" r="0.8" fill="#f5f5f5" opacity="0.24"/><circle cx="405" cy="329" r="0.8" fill="#f5f5f5" opacity="0.19"/><circle cx="271" cy="71" r="0.8" fill="#f5f5f5" opacity="0.14"/><circle cx="574" cy="275" r="0.8" fill="#f5f5f5" opacity="0.14"/><circle cx="598" cy="219" r="0.8" fill="#f5f5f5" opacity="0.30"/><circle cx="408" cy="185" r="0.8" fill="#f5f5f5" opacity="0.13"/><circle cx="141" cy="260" r="0.8" fill="#f5f5f5" opacity="0.20"/><circle cx="48" cy="56" r="0.8" fill="#f5f5f5" opacity="0.12"/><circle cx="163" cy="348" r="0.8" fill="#f5f5f5" opacity="0.18"/><circle cx="65" cy="197" r="0.8" fill="#f5f5f5" opacity="0.17"/><circle cx="479" cy="270" r="0.8" fill="#f5f5f5" opacity="0.14"/><circle cx="566" cy="5" r="0.8" fill="#f5f5f5" opacity="0.24"/><circle cx="117" cy="349" r="0.8" fill="#f5f5f5" opacity="0.29"/><circle cx="273" cy="328" r="0.8" fill="#f5f5f5" opacity="0.16"/><circle cx="300" cy="222" r="0.8" fill="#f5f5f5" opacity="0.12"/><circle cx="3" cy="134" r="0.8" fill="#f5f5f5" opacity="0.31"/><circle cx="182" cy="259" r="0.8" fill="#f5f5f5" opacity="0.30"/><circle cx="640" cy="152" r="0.8" fill="#f5f5f5" opacity="0.28"/><circle cx="519" cy="311" r="0.8" fill="#f5f5f5" opacity="0.13"/><circle cx="382" cy="82" r="0.8" fill="#f5f5f5" opacity="0.21"/><circle cx="543" cy="0" r="0.8" fill="#f5f5f5" opacity="0.22"/><circle cx="500" cy="9" r="0.8" fill="#f5f5f5" opacity="0.11"/><circle cx="371" cy="157" r="0.8" fill="#f5f5f5" opacity="0.14"/><circle cx="246" cy="290" r="0.8" fill="#f5f5f5" opacity="0.31"/><circle cx="87" cy="248" r="0.8" fill="#f5f5f5" opacity="0.28"/><circle cx="545" cy="64" r="0.8" fill="#f5f5f5" opacity="0.11"/><circle cx="486" cy="281" r="0.8" fill="#f5f5f5" opacity="0.12"/><circle cx="540" cy="310" r="0.8" fill="#f5f5f5" opacity="0.18"/><circle cx="216" cy="276" r="0.8" fill="#f5f5f5" opacity="0.26"/><circle cx="706" cy="102" r="0.8" fill="#f5f5f5" opacity="0.25"/><circle cx="408" cy="343" r="0.8" fill="#f5f5f5" opacity="0.24"/><circle cx="448" cy="264" r="0.8" fill="#f5f5f5" opacity="0.19"/><circle cx="253" cy="115" r="0.8" fill="#f5f5f5" opacity="0.10"/><circle cx="21" cy="301" r="0.8" fill="#f5f5f5" opacity="0.21"/><circle cx="602" cy="112" r="0.8" fill="#f5f5f5" opacity="0.08"/><circle cx="646" cy="30" r="0.8" fill="#f5f5f5" opacity="0.13"/><circle cx="32" cy="169" r="0.8" fill="#f5f5f5" opacity="0.10"/><circle cx="243" cy="142" r="0.8" fill="#f5f5f5" opacity="0.24"/><circle cx="219" cy="276" r="0.8" fill="#f5f5f5" opacity="0.11"/><circle cx="584" cy="295" r="0.8" fill="#f5f5f5" opacity="0.19"/><circle cx="484" cy="208" r="0.8" fill="#f5f5f5" opacity="0.13"/><circle cx="99" cy="337" r="0.8" fill="#f5f5f5" opacity="0.18"/><circle cx="433" cy="210" r="0.8" fill="#f5f5f5" opacity="0.19"/><circle cx="55" cy="344" r="0.8" fill="#f5f5f5" opacity="0.24"/><circle cx="661" cy="50" r="0.8" fill="#f5f5f5" opacity="0.09"/><circle cx="347" cy="55" r="0.8" fill="#f5f5f5" opacity="0.14"/><circle cx="194" cy="274" r="0.8" fill="#f5f5f5" opacity="0.19"/><circle cx="432" cy="93" r="0.8" fill="#f5f5f5" opacity="0.15"/><circle cx="255" cy="38" r="0.8" fill="#f5f5f5" opacity="0.19"/><circle cx="563" cy="50" r="0.8" fill="#f5f5f5" opacity="0.09"/><circle cx="553" cy="7" r="0.8" fill="#f5f5f5" opacity="0.31"/><circle cx="242" cy="85" r="0.8" fill="#f5f5f5" opacity="0.18"/><circle cx="492" cy="109" r="0.8" fill="#f5f5f5" opacity="0.29"/><circle cx="60" cy="84" r="0.8" fill="#f5f5f5" opacity="0.17"/><circle cx="399" cy="135" r="0.8" fill="#f5f5f5" opacity="0.30"/><circle cx="465" cy="146" r="0.8" fill="#f5f5f5" opacity="0.18"/><circle cx="569" cy="338" r="0.8" fill="#f5f5f5" opacity="0.25"/><circle cx="158" cy="97" r="0.8" fill="#f5f5f5" opacity="0.15"/><circle cx="59" cy="296" r="0.8" fill="#f5f5f5" opacity="0.26"/><circle cx="62" cy="160" r="0.8" fill="#f5f5f5" opacity="0.09"/><circle cx="598" cy="244" r="0.8" fill="#f5f5f5" opacity="0.20"/><circle cx="543" cy="80" r="0.8" fill="#f5f5f5" opacity="0.09"/><circle cx="520" cy="41" r="0.8" fill="#f5f5f5" opacity="0.28"/><circle cx="70" cy="304" r="0.8" fill="#f5f5f5" opacity="0.10"/><circle cx="240" cy="206" r="0.8" fill="#f5f5f5" opacity="0.11"/><circle cx="583" cy="126" r="0.8" fill="#f5f5f5" opacity="0.22"/><circle cx="40" cy="317" r="0.8" fill="#f5f5f5" opacity="0.10"/><circle cx="673" cy="298" r="0.8" fill="#f5f5f5" opacity="0.22"/><circle cx="323" cy="133" r="0.8" fill="#f5f5f5" opacity="0.13"/><circle cx="321" cy="122" r="0.8" fill="#f5f5f5" opacity="0.14"/><circle cx="134" cy="343" r="0.8" fill="#f5f5f5" opacity="0.23"/><circle cx="468" cy="161" r="0.8" fill="#f5f5f5" opacity="0.30"/><circle cx="74" cy="4" r="0.8" fill="#f5f5f5" opacity="0.19"/><circle cx="576" cy="51" r="0.8" fill="#f5f5f5" opacity="0.10"/><circle cx="218" cy="259" r="0.8" fill="#f5f5f5" opacity="0.14"/><circle cx="357" cy="35" r="0.8" fill="#f5f5f5" opacity="0.29"/><circle cx="378" cy="145" r="0.8" fill="#f5f5f5" opacity="0.12"/><circle cx="556" cy="154" r="0.8" fill="#f5f5f5" opacity="0.23"/><circle cx="669" cy="270" r="0.8" fill="#f5f5f5" opacity="0.08"/><circle cx="567" cy="153" r="0.8" fill="#f5f5f5" opacity="0.30"/><circle cx="106" cy="68" r="0.8" fill="#f5f5f5" opacity="0.14"/><circle cx="109" cy="283" r="0.8" fill="#f5f5f5" opacity="0.12"/><circle cx="288" cy="309" r="0.8" fill="#f5f5f5" opacity="0.13"/><circle cx="351" cy="104" r="0.8" fill="#f5f5f5" opacity="0.24"/><circle cx="270" cy="258" r="0.8" fill="#f5f5f5" opacity="0.20"/><circle cx="52" cy="47" r="0.8" fill="#f5f5f5" opacity="0.23"/><circle cx="283" cy="22" r="0.8" fill="#f5f5f5" opacity="0.08"/><circle cx="133" cy="326" r="0.8" fill="#f5f5f5" opacity="0.32"/><circle cx="165" cy="226" r="0.8" fill="#f5f5f5" opacity="0.21"/><circle cx="437" cy="287" r="0.8" fill="#f5f5f5" opacity="0.08"/><circle cx="77" cy="353" r="0.8" fill="#f5f5f5" opacity="0.30"/><circle cx="558" cy="18" r="0.8" fill="#f5f5f5" opacity="0.28"/><circle cx="596" cy="282" r="0.8" fill="#f5f5f5" opacity="0.12"/><circle cx="130" cy="21" r="0.8" fill="#f5f5f5" opacity="0.15"/><circle cx="40" cy="183" r="0.8" fill="#f5f5f5" opacity="0.13"/><circle cx="255" cy="341" r="0.8" fill="#f5f5f5" opacity="0.10"/><circle cx="573" cy="208" r="0.8" fill="#f5f5f5" opacity="0.31"/><circle cx="158" cy="121" r="0.8" fill="#f5f5f5" opacity="0.29"/><circle cx="181" cy="211" r="0.8" fill="#f5f5f5" opacity="0.09"/><circle cx="340" cy="210" r="0.8" fill="#f5f5f5" opacity="0.27"/><circle cx="254" cy="136" r="0.8" fill="#f5f5f5" opacity="0.12"/><circle cx="718" cy="55" r="0.8" fill="#f5f5f5" opacity="0.17"/><circle cx="39" cy="240" r="0.8" fill="#f5f5f5" opacity="0.13"/><circle cx="471" cy="179" r="0.8" fill="#f5f5f5" opacity="0.15"/><circle cx="233" cy="114" r="0.8" fill="#f5f5f5" opacity="0.09"/><circle cx="197" cy="204" r="0.8" fill="#f5f5f5" opacity="0.16"/><circle cx="71" cy="142" r="0.8" fill="#f5f5f5" opacity="0.16"/><circle cx="521" cy="204" r="0.8" fill="#f5f5f5" opacity="0.24"/><circle cx="549" cy="169" r="0.8" fill="#f5f5f5" opacity="0.31"/><circle cx="118" cy="133" r="0.8" fill="#f5f5f5" opacity="0.12"/><circle cx="271" cy="19" r="0.8" fill="#f5f5f5" opacity="0.11"/><circle cx="444" cy="176" r="0.8" fill="#f5f5f5" opacity="0.25"/><circle cx="321" cy="223" r="0.8" fill="#f5f5f5" opacity="0.23"/><circle cx="523" cy="59" r="0.8" fill="#f5f5f5" opacity="0.17"/><circle cx="590" cy="97" r="0.8" fill="#f5f5f5" opacity="0.14"/><circle cx="446" cy="0" r="0.8" fill="#f5f5f5" opacity="0.20"/><circle cx="551" cy="351" r="0.8" fill="#f5f5f5" opacity="0.25"/><circle cx="686" cy="100" r="0.8" fill="#f5f5f5" opacity="0.17"/><circle cx="71" cy="340" r="0.8" fill="#f5f5f5" opacity="0.30"/><circle cx="638" cy="160" r="0.8" fill="#f5f5f5" opacity="0.24"/><circle cx="127" cy="153" r="0.8" fill="#f5f5f5" opacity="0.20"/><circle cx="682" cy="209" r="0.8" fill="#f5f5f5" opacity="0.16"/><circle cx="713" cy="151" r="0.8" fill="#f5f5f5" opacity="0.21"/><circle cx="196" cy="215" r="0.8" fill="#f5f5f5" opacity="0.24"/><circle cx="388" cy="346" r="0.8" fill="#f5f5f5" opacity="0.26"/><circle cx="178" cy="315" r="0.8" fill="#f5f5f5" opacity="0.22"/><circle cx="415" cy="280" r="0.8" fill="#f5f5f5" opacity="0.28"/><circle cx="311" cy="146" r="0.8" fill="#f5f5f5" opacity="0.13"/><circle cx="593" cy="310" r="0.8" fill="#f5f5f5" opacity="0.24"/><circle cx="476" cy="226" r="0.8" fill="#f5f5f5" opacity="0.19"/><circle cx="218" cy="261" r="0.8" fill="#f5f5f5" opacity="0.19"/><circle cx="173" cy="337" r="0.8" fill="#f5f5f5" opacity="0.10"/><circle cx="527" cy="339" r="0.8" fill="#f5f5f5" opacity="0.23"/><circle cx="343" cy="47" r="0.8" fill="#f5f5f5" opacity="0.28"/><circle cx="240" cy="344" r="0.8" fill="#f5f5f5" opacity="0.15"/><circle cx="203" cy="75" r="0.8" fill="#f5f5f5" opacity="0.09"/><circle cx="250" cy="243" r="0.8" fill="#f5f5f5" opacity="0.23"/><circle cx="74" cy="233" r="0.8" fill="#f5f5f5" opacity="0.18"/><circle cx="644" cy="294" r="0.8" fill="#f5f5f5" opacity="0.13"/><circle cx="713" cy="196" r="0.8" fill="#f5f5f5" opacity="0.20"/><circle cx="249" cy="75" r="0.8" fill="#f5f5f5" opacity="0.24"/><circle cx="5" cy="54" r="0.8" fill="#f5f5f5" opacity="0.27"/><circle cx="224" cy="90" r="0.8" fill="#f5f5f5" opacity="0.27"/><circle cx="712" cy="265" r="0.8" fill="#f5f5f5" opacity="0.19"/><circle cx="570" cy="127" r="0.8" fill="#f5f5f5" opacity="0.30"/><circle cx="124" cy="233" r="0.8" fill="#f5f5f5" opacity="0.11"/><circle cx="475" cy="341" r="0.8" fill="#f5f5f5" opacity="0.21"/><circle cx="572" cy="304" r="0.8" fill="#f5f5f5" opacity="0.16"/><circle cx="453" cy="313" r="0.8" fill="#f5f5f5" opacity="0.28"/></g>
  <circle cx="500" cy="150" r="26" fill="none" stroke="#f5f5f5" stroke-width="1.2" opacity="0.42"/>
  <circle cx="500" cy="150" r="54" fill="none" stroke="#f5f5f5" stroke-width="0.9" opacity="0.20"/>
  <path d="M82 300 C170 246 259 268 326 213 C381 168 422 157 500 150" fill="none" stroke="#f5f5f5" stroke-width="1.2" opacity="0.24"/>
  <text x="36" y="64" fill="#f5f5f5" opacity="0.16" font-size="68" font-family="Georgia,serif" letter-spacing="4">HERMES</text>
</svg>